<svg width="5" height="10" viewBox="0 0 5 10" fill="none" xmlns="http://www.w3.org/2000/svg">
<path d="M3.51575 0.312712C3.58414 0.227253 3.66869 0.156101 3.76458 0.103318C3.86047 0.0505359 3.96581 0.0171566 4.0746 0.00508631C4.2943 -0.0192907 4.5147 0.0446084 4.68729 0.182727C4.85988 0.320845 4.97054 0.521868 4.99491 0.741573C5.01929 0.961279 4.95539 1.18167 4.81727 1.35426L1.90093 4.99969L4.81727 8.64511C4.95539 8.81771 5.01929 9.0381 4.99491 9.2578C4.97054 9.47751 4.85988 9.67853 4.68729 9.81665C4.5147 9.95477 4.2943 10.0187 4.0746 9.99429C3.85489 9.96991 3.65387 9.85925 3.51575 9.68666L0.182792 5.52046C0.0644689 5.37268 0 5.189 0 4.99969C0 4.81037 0.0644689 4.6267 0.182792 4.47891L3.51575 0.312712Z" fill="#A31F34"/>
</svg>
