<svg width="12" height="12" viewBox="0 0 12 12" fill="none" xmlns="http://www.w3.org/2000/svg">
<g id="Icon">
<g id="Group">
<path id="Vector" d="M10.2929 1.29304L3.99992 7.58604L1.70692 5.29304C1.51832 5.11088 1.26571 5.01009 1.00352 5.01237C0.741321 5.01465 0.490508 5.11981 0.3051 5.30522C0.119692 5.49063 0.0145233 5.74144 0.0122448 6.00364C0.00996641 6.26584 0.110761 6.51844 0.292919 6.70704L3.29292 9.70704C3.48045 9.89451 3.73475 9.99983 3.99992 9.99983C4.26508 9.99983 4.51939 9.89451 4.70692 9.70704L11.7069 2.70704C11.8891 2.51844 11.9899 2.26584 11.9876 2.00364C11.9853 1.74144 11.8801 1.49063 11.6947 1.30522C11.5093 1.11981 11.2585 1.01465 10.9963 1.01237C10.7341 1.01009 10.4815 1.11088 10.2929 1.29304Z" fill="white"/>
</g>
</g>
</svg>
